<mxfile host="app.diagrams.net" agent="Mozilla/5.0 (X11; Linux x86_64) AppleWebKit/537.36 (KHTML, like Gecko) Chrome/123.0.0.0 Safari/537.36" version="24.8.3">
  <diagram name="Page-1" id="Lbu9nHjpC7jIh7GUcYGa">
    <mxGraphModel dx="1020" dy="1747" grid="1" gridSize="10" guides="1" tooltips="1" connect="1" arrows="1" fold="1" page="1" pageScale="1" pageWidth="827" pageHeight="1169" math="0" shadow="0">
      <root>
        <mxCell id="0" />
        <mxCell id="1" parent="0" />
        <mxCell id="k9PZlW4T3JU4_qdm73En-1" value="Web server" style="verticalAlign=top;align=left;spacingTop=8;spacingLeft=2;spacingRight=12;shape=cube;size=10;direction=south;fontStyle=4;html=1;whiteSpace=wrap;" vertex="1" parent="1">
          <mxGeometry x="80" y="644" width="470" height="260" as="geometry" />
        </mxCell>
        <mxCell id="k9PZlW4T3JU4_qdm73En-2" value="Customer" style="shape=umlActor;verticalLabelPosition=bottom;verticalAlign=top;html=1;" vertex="1" parent="1">
          <mxGeometry x="130" y="266" width="30" height="60" as="geometry" />
        </mxCell>
        <mxCell id="k9PZlW4T3JU4_qdm73En-4" value="Admin" style="shape=umlActor;verticalLabelPosition=bottom;verticalAlign=top;html=1;" vertex="1" parent="1">
          <mxGeometry x="263" y="266" width="30" height="60" as="geometry" />
        </mxCell>
        <mxCell id="k9PZlW4T3JU4_qdm73En-22" value="" style="edgeStyle=orthogonalEdgeStyle;rounded=0;orthogonalLoop=1;jettySize=auto;html=1;entryX=0.509;entryY=-0.005;entryDx=0;entryDy=0;entryPerimeter=0;curved=1;" edge="1" parent="1" target="k9PZlW4T3JU4_qdm73En-16">
          <mxGeometry relative="1" as="geometry">
            <mxPoint x="414" y="340" as="sourcePoint" />
          </mxGeometry>
        </mxCell>
        <mxCell id="k9PZlW4T3JU4_qdm73En-7" value="&lt;span style=&quot;font-weight: normal;&quot;&gt;Courier&lt;/span&gt;" style="shape=umlActor;verticalLabelPosition=bottom;verticalAlign=top;html=1;fontStyle=1" vertex="1" parent="1">
          <mxGeometry x="399" y="257" width="30" height="60" as="geometry" />
        </mxCell>
        <mxCell id="k9PZlW4T3JU4_qdm73En-18" value="" style="group" vertex="1" connectable="0" parent="1">
          <mxGeometry x="160" y="410" width="120" height="70" as="geometry" />
        </mxCell>
        <mxCell id="k9PZlW4T3JU4_qdm73En-13" value="client" style="shape=umlFrame;whiteSpace=wrap;html=1;pointerEvents=0;width=50;height=20;" vertex="1" parent="k9PZlW4T3JU4_qdm73En-18">
          <mxGeometry width="120" height="70" as="geometry" />
        </mxCell>
        <mxCell id="k9PZlW4T3JU4_qdm73En-14" value="&lt;font style=&quot;font-size: 14px;&quot;&gt;Web browser&lt;/font&gt;" style="text;html=1;align=center;verticalAlign=middle;resizable=0;points=[];autosize=1;strokeColor=none;fillColor=none;" vertex="1" parent="k9PZlW4T3JU4_qdm73En-18">
          <mxGeometry x="5" y="25" width="110" height="30" as="geometry" />
        </mxCell>
        <mxCell id="k9PZlW4T3JU4_qdm73En-19" value="" style="group" vertex="1" connectable="0" parent="1">
          <mxGeometry x="340" y="410" width="120" height="70" as="geometry" />
        </mxCell>
        <mxCell id="k9PZlW4T3JU4_qdm73En-16" value="client" style="shape=umlFrame;whiteSpace=wrap;html=1;pointerEvents=0;width=50;height=20;" vertex="1" parent="k9PZlW4T3JU4_qdm73En-19">
          <mxGeometry width="120" height="70" as="geometry" />
        </mxCell>
        <mxCell id="k9PZlW4T3JU4_qdm73En-17" value="&lt;font style=&quot;font-size: 14px;&quot;&gt;Phone app&lt;/font&gt;" style="text;html=1;align=center;verticalAlign=middle;resizable=0;points=[];autosize=1;strokeColor=none;fillColor=none;" vertex="1" parent="k9PZlW4T3JU4_qdm73En-19">
          <mxGeometry x="15" y="25" width="90" height="30" as="geometry" />
        </mxCell>
        <mxCell id="k9PZlW4T3JU4_qdm73En-20" style="edgeStyle=orthogonalEdgeStyle;rounded=0;orthogonalLoop=1;jettySize=auto;html=1;entryX=0.51;entryY=-0.01;entryDx=0;entryDy=0;entryPerimeter=0;curved=1;" edge="1" parent="1" target="k9PZlW4T3JU4_qdm73En-13">
          <mxGeometry relative="1" as="geometry">
            <mxPoint x="280" y="350" as="sourcePoint" />
          </mxGeometry>
        </mxCell>
        <mxCell id="k9PZlW4T3JU4_qdm73En-21" style="edgeStyle=orthogonalEdgeStyle;rounded=0;orthogonalLoop=1;jettySize=auto;html=1;entryX=0.351;entryY=-0.01;entryDx=0;entryDy=0;entryPerimeter=0;curved=1;" edge="1" parent="1" target="k9PZlW4T3JU4_qdm73En-13">
          <mxGeometry relative="1" as="geometry">
            <mxPoint x="145" y="350" as="sourcePoint" />
            <Array as="points">
              <mxPoint x="145" y="370" />
              <mxPoint x="202" y="370" />
            </Array>
          </mxGeometry>
        </mxCell>
        <mxCell id="k9PZlW4T3JU4_qdm73En-47" style="edgeStyle=orthogonalEdgeStyle;rounded=0;orthogonalLoop=1;jettySize=auto;html=1;exitX=0.5;exitY=1;exitDx=0;exitDy=0;entryX=0.5;entryY=0;entryDx=0;entryDy=0;curved=1;" edge="1" parent="1" source="k9PZlW4T3JU4_qdm73En-23" target="k9PZlW4T3JU4_qdm73En-44">
          <mxGeometry relative="1" as="geometry" />
        </mxCell>
        <mxCell id="k9PZlW4T3JU4_qdm73En-23" value="Auth Provider" style="html=1;dropTarget=0;whiteSpace=wrap;" vertex="1" parent="1">
          <mxGeometry x="350" y="690" width="130" height="50" as="geometry" />
        </mxCell>
        <mxCell id="k9PZlW4T3JU4_qdm73En-24" value="" style="shape=module;jettyWidth=8;jettyHeight=4;" vertex="1" parent="k9PZlW4T3JU4_qdm73En-23">
          <mxGeometry x="1" width="20" height="20" relative="1" as="geometry">
            <mxPoint x="-24" y="5" as="offset" />
          </mxGeometry>
        </mxCell>
        <mxCell id="k9PZlW4T3JU4_qdm73En-31" style="edgeStyle=orthogonalEdgeStyle;rounded=0;orthogonalLoop=1;jettySize=auto;html=1;exitX=0.25;exitY=1;exitDx=0;exitDy=0;entryX=0.5;entryY=0;entryDx=0;entryDy=0;curved=1;" edge="1" parent="1" source="k9PZlW4T3JU4_qdm73En-25" target="k9PZlW4T3JU4_qdm73En-29">
          <mxGeometry relative="1" as="geometry" />
        </mxCell>
        <mxCell id="k9PZlW4T3JU4_qdm73En-32" style="edgeStyle=orthogonalEdgeStyle;rounded=0;orthogonalLoop=1;jettySize=auto;html=1;exitX=0.75;exitY=1;exitDx=0;exitDy=0;entryX=0.5;entryY=0;entryDx=0;entryDy=0;curved=1;" edge="1" parent="1" source="k9PZlW4T3JU4_qdm73En-25" target="k9PZlW4T3JU4_qdm73En-23">
          <mxGeometry relative="1" as="geometry" />
        </mxCell>
        <mxCell id="k9PZlW4T3JU4_qdm73En-25" value="API gateway" style="html=1;whiteSpace=wrap;" vertex="1" parent="1">
          <mxGeometry x="230" y="559.5" width="110" height="50" as="geometry" />
        </mxCell>
        <mxCell id="k9PZlW4T3JU4_qdm73En-46" style="edgeStyle=orthogonalEdgeStyle;rounded=0;orthogonalLoop=1;jettySize=auto;html=1;exitX=0.5;exitY=1;exitDx=0;exitDy=0;entryX=0;entryY=0.5;entryDx=0;entryDy=0;curved=1;" edge="1" parent="1" source="k9PZlW4T3JU4_qdm73En-29" target="k9PZlW4T3JU4_qdm73En-44">
          <mxGeometry relative="1" as="geometry" />
        </mxCell>
        <mxCell id="k9PZlW4T3JU4_qdm73En-29" value="Salesforce CRM" style="html=1;dropTarget=0;whiteSpace=wrap;" vertex="1" parent="1">
          <mxGeometry x="90" y="724" width="157" height="80" as="geometry" />
        </mxCell>
        <mxCell id="k9PZlW4T3JU4_qdm73En-30" value="" style="shape=module;jettyWidth=8;jettyHeight=4;" vertex="1" parent="k9PZlW4T3JU4_qdm73En-29">
          <mxGeometry x="1" width="20" height="20" relative="1" as="geometry">
            <mxPoint x="-24" y="5" as="offset" />
          </mxGeometry>
        </mxCell>
        <mxCell id="k9PZlW4T3JU4_qdm73En-44" value="Cloud Storage" style="html=1;dropTarget=0;whiteSpace=wrap;" vertex="1" parent="1">
          <mxGeometry x="336.5" y="794" width="157" height="80" as="geometry" />
        </mxCell>
        <mxCell id="k9PZlW4T3JU4_qdm73En-45" value="" style="shape=module;jettyWidth=8;jettyHeight=4;" vertex="1" parent="k9PZlW4T3JU4_qdm73En-44">
          <mxGeometry x="1" width="20" height="20" relative="1" as="geometry">
            <mxPoint x="-24" y="5" as="offset" />
          </mxGeometry>
        </mxCell>
        <mxCell id="k9PZlW4T3JU4_qdm73En-48" value="External API" style="verticalAlign=top;align=left;spacingTop=8;spacingLeft=2;spacingRight=12;shape=cube;size=10;direction=south;fontStyle=4;html=1;whiteSpace=wrap;" vertex="1" parent="1">
          <mxGeometry x="560" y="506" width="180" height="120" as="geometry" />
        </mxCell>
        <mxCell id="k9PZlW4T3JU4_qdm73En-50" value="Google Maps&lt;div&gt;API&lt;/div&gt;" style="html=1;dropTarget=0;whiteSpace=wrap;" vertex="1" parent="1">
          <mxGeometry x="585" y="550" width="130" height="50" as="geometry" />
        </mxCell>
        <mxCell id="k9PZlW4T3JU4_qdm73En-51" value="" style="shape=module;jettyWidth=8;jettyHeight=4;" vertex="1" parent="k9PZlW4T3JU4_qdm73En-50">
          <mxGeometry x="1" width="20" height="20" relative="1" as="geometry">
            <mxPoint x="-24" y="5" as="offset" />
          </mxGeometry>
        </mxCell>
        <mxCell id="k9PZlW4T3JU4_qdm73En-54" value="" style="edgeStyle=orthogonalEdgeStyle;elbow=horizontal;endArrow=classic;html=1;curved=1;rounded=0;endSize=8;startSize=8;entryX=0;entryY=0;entryDx=0;entryDy=85;entryPerimeter=0;exitX=1.005;exitY=0.439;exitDx=0;exitDy=0;exitPerimeter=0;" edge="1" parent="1" source="k9PZlW4T3JU4_qdm73En-16" target="k9PZlW4T3JU4_qdm73En-48">
          <mxGeometry width="50" height="50" relative="1" as="geometry">
            <mxPoint x="510" y="650" as="sourcePoint" />
            <mxPoint x="560" y="600" as="targetPoint" />
          </mxGeometry>
        </mxCell>
        <mxCell id="k9PZlW4T3JU4_qdm73En-55" value="" style="edgeStyle=orthogonalEdgeStyle;elbow=horizontal;endArrow=classic;html=1;curved=1;rounded=0;endSize=8;startSize=8;entryX=0.5;entryY=0;entryDx=0;entryDy=0;exitX=0.523;exitY=0.99;exitDx=0;exitDy=0;exitPerimeter=0;" edge="1" parent="1" source="k9PZlW4T3JU4_qdm73En-16" target="k9PZlW4T3JU4_qdm73En-25">
          <mxGeometry width="50" height="50" relative="1" as="geometry">
            <mxPoint x="370" y="680" as="sourcePoint" />
            <mxPoint x="420" y="630" as="targetPoint" />
          </mxGeometry>
        </mxCell>
        <mxCell id="k9PZlW4T3JU4_qdm73En-56" value="" style="edgeStyle=orthogonalEdgeStyle;elbow=horizontal;endArrow=classic;html=1;curved=1;rounded=0;endSize=8;startSize=8;entryX=0.5;entryY=0;entryDx=0;entryDy=0;exitX=0.511;exitY=0.99;exitDx=0;exitDy=0;exitPerimeter=0;" edge="1" parent="1" source="k9PZlW4T3JU4_qdm73En-13" target="k9PZlW4T3JU4_qdm73En-25">
          <mxGeometry width="50" height="50" relative="1" as="geometry">
            <mxPoint x="228.67999999999998" y="460" as="sourcePoint" />
            <mxPoint x="293" y="548.6000000000001" as="targetPoint" />
            <Array as="points">
              <mxPoint x="221" y="520" />
              <mxPoint x="285" y="520" />
            </Array>
          </mxGeometry>
        </mxCell>
        <mxCell id="k9PZlW4T3JU4_qdm73En-58" value="User interaction" style="text;html=1;align=center;verticalAlign=middle;resizable=0;points=[];autosize=1;strokeColor=none;fillColor=none;" vertex="1" parent="1">
          <mxGeometry x="271" y="372" width="110" height="30" as="geometry" />
        </mxCell>
        <mxCell id="k9PZlW4T3JU4_qdm73En-59" value="HTTP request (REST API)" style="text;html=1;align=center;verticalAlign=middle;resizable=0;points=[];autosize=1;strokeColor=none;fillColor=none;" vertex="1" parent="1">
          <mxGeometry x="229" y="489" width="160" height="30" as="geometry" />
        </mxCell>
        <mxCell id="k9PZlW4T3JU4_qdm73En-60" value="HTTP request" style="text;html=1;align=center;verticalAlign=middle;resizable=0;points=[];autosize=1;strokeColor=none;fillColor=none;" vertex="1" parent="1">
          <mxGeometry x="160" y="614" width="100" height="30" as="geometry" />
        </mxCell>
        <mxCell id="k9PZlW4T3JU4_qdm73En-61" value="SQL queries" style="text;html=1;align=center;verticalAlign=middle;whiteSpace=wrap;rounded=0;" vertex="1" parent="1">
          <mxGeometry x="340" y="749" width="71" height="30" as="geometry" />
        </mxCell>
        <mxCell id="k9PZlW4T3JU4_qdm73En-62" value="SQL queries" style="text;html=1;align=center;verticalAlign=middle;whiteSpace=wrap;rounded=0;" vertex="1" parent="1">
          <mxGeometry x="189" y="830" width="71" height="30" as="geometry" />
        </mxCell>
        <mxCell id="k9PZlW4T3JU4_qdm73En-63" value="HTTP request (REST API)" style="text;html=1;align=center;verticalAlign=middle;resizable=0;points=[];autosize=1;strokeColor=none;fillColor=none;" vertex="1" parent="1">
          <mxGeometry x="510" y="410" width="160" height="30" as="geometry" />
        </mxCell>
      </root>
    </mxGraphModel>
  </diagram>
</mxfile>
